<?xml version="1.0" encoding="UTF-8" standalone="no"?>
<!-- Generator: Adobe Illustrator 19.0.0, SVG Export Plug-In . SVG Version: 6.00 Build 0)  -->

<svg
   xmlns:dc="http://purl.org/dc/elements/1.1/"
   xmlns:cc="http://creativecommons.org/ns#"
   xmlns:rdf="http://www.w3.org/1999/02/22-rdf-syntax-ns#"
   xmlns:svg="http://www.w3.org/2000/svg"
   xmlns="http://www.w3.org/2000/svg"
   xmlns:sodipodi="http://sodipodi.sourceforge.net/DTD/sodipodi-0.dtd"
   xmlns:inkscape="http://www.inkscape.org/namespaces/inkscape"
   version="1.1"
   id="Capa_1"
   x="0px"
   y="0px"
   viewBox="0 0 57 57"
   style="enable-background:new 0 0 57 57;"
   xml:space="preserve"
   inkscape:version="0.48.5 r10040"
   width="100%"
   height="100%"
   sodipodi:docname="next.svg"><metadata
     id="metadata39"><rdf:RDF><cc:Work
         rdf:about=""><dc:format>image/svg+xml</dc:format><dc:type
           rdf:resource="http://purl.org/dc/dcmitype/StillImage" /><dc:title></dc:title></cc:Work></rdf:RDF></metadata><defs
     id="defs37" /><sodipodi:namedview
     pagecolor="#ffffff"
     bordercolor="#666666"
     borderopacity="1"
     objecttolerance="10"
     gridtolerance="10"
     guidetolerance="10"
     inkscape:pageopacity="0"
     inkscape:pageshadow="2"
     inkscape:window-width="640"
     inkscape:window-height="480"
     id="namedview35"
     showgrid="false"
     inkscape:zoom="4.1403509"
     inkscape:cx="28.5"
     inkscape:cy="28.5"
     inkscape:window-x="0"
     inkscape:window-y="0"
     inkscape:window-maximized="0"
     inkscape:current-layer="Capa_1" /><path
     d="m 0.425,27.683 27,-19 C 27.731,8.467 28.128,8.441 28.461,8.613 28.792,8.784 29,9.127 29,9.5 V 27.277 L 55.425,8.694 C 55.73,8.481 56.128,8.453 56.461,8.625 56.792,8.797 57,9.14 57,9.513 v 37.975 c 0,0.373 -0.208,0.716 -0.539,0.888 -0.146,0.074 -0.304,0.111 -0.461,0.111 -0.202,0 -0.403,-0.062 -0.575,-0.182 L 29,29.723 V 47.5 c 0,0.373 -0.208,0.716 -0.539,0.888 C 28.315,48.463 28.157,48.5 28,48.5 c -0.202,0 -0.404,-0.062 -0.575,-0.183 l -27,-19 C 0.158,29.131 0,28.825 0,28.5 0,28.175 0.158,27.869 0.425,27.683 z"
     id="path3"
     inkscape:connector-curvature="0" /><g
     id="g5" /><g
     id="g7" /><g
     id="g9" /><g
     id="g11" /><g
     id="g13" /><g
     id="g15" /><g
     id="g17" /><g
     id="g19" /><g
     id="g21" /><g
     id="g23" /><g
     id="g25" /><g
     id="g27" /><g
     id="g29" /><g
     id="g31" /><g
     id="g33" /></svg>